# xmcd CD database file
#
# Track frame offsets:
#	150
#	15110
#	30121
#	40274
#	51546
#	61334
#	74030
#	88948
#	102939
#	114985
#	133249
#	144950
#	154194
#	167396
#	178232
#
# Disc length: 2526 seconds
#
# Revision: 2
# Processed by: cddbd v1.5.2PL0 Copyright (c) Steve Scherf et al.
# Submitted via: CDex 1.80
#
DISCID=c709dc0f
DTITLE=Various Artist - The Best Of Country
DYEAR=1900
DGENRE=Country
TTITLE0=Harper Valley PTA - Jeannie C Riley
TTITLE1=Conditions - Kenny Rogers
TTITLE2=Kisses Sweeter Than Wine - Jimmie Rodgers
TTITLE3=It Wasn't God Who Made Honky Tonk Angels - Kitty Wells
TTITLE4=Truck Drivin' Son Of A Gun - Dave Dudley
TTITLE5=Don't Be Angry - Donna Fargo
TTITLE6=That Was Yesterday - Donna Fargo
TTITLE7=Teddy Bear Song - Barbara Fairchild
TTITLE8=Before The Next Teardrop Falls - Freddy Fender
TTITLE9=Secret Love - Freddy Fender
TTITLE10=Oh Lonesome Me - Don Gibson
TTITLE11=Mr Love Maker - Johnny Paycheck
TTITLE12=A Fallen Star - Ferlin Husky
TTITLE13=Dixie Fried - Carl Perkins
TTITLE14=Send Me The Pillow That You Dream On - Hank Locklin
EXTD=
EXTT0=
EXTT1=
EXTT2=
EXTT3=
EXTT4=
EXTT5=
EXTT6=
EXTT7=
EXTT8=
EXTT9=
EXTT10=
EXTT11=
EXTT12=
EXTT13=
EXTT14=
PLAYORDER=
